<svg class="diagram-root" style="background: #f5f6f6" xmlns="http://www.w3.org/2000/svg" xmlns:xlink="http://www.w3.org/1999/xlink"><style>.diagram-root { font-family: "Helvetica Neue", sans-serif; font-size: 12px; } .t { overflow: visible; } .t-bg { y: 40; fill: #fff;   } .th { fill: #005aa0;   } .tht { fill: #fff; font-size: 14px;  } .tf { fill: #323c46; overflow: visible; } .tf.pk { fill: #005aa0; font-weight: bold; } .tf.fk { font-weight: bold; } .ty { fill: #adb1b5; font-weight: normal; text-anchor: end; } .r { fill: transparent; stroke: #c3c3c3; stroke-width: 1; } .l { stroke: 1; } .i { fill: #c2c7ce; stroke: #c2c7ce; } .i.ix { fill: #afb3b6; stroke: #000; } .fa { fill: transparent; overflow: visible; } .fa .bg.hover { fill: #f7f7f7; } .c { cy: 12; r: 4; stroke: #d2d2dc; fill: #d2d2dc; } .hr { fill: transparent; stroke: #323c46; stroke-opacity: 0.035; stroke-width: 13; } .dc { stroke: #fa5a3c; fill: #fa5a3c; } .x { stroke: white; stroke-width: 1; } .hl .th { fill: #1b9bff; } .hl .tht {  } .fhl .bg { fill: #e7f4ff; } .fhls .bg {  } .r.hl { stroke: #1b9bff; } .dim { opacity: 0.25; }</style><g class="drawing-wrapper" transform="translate(-69, 1) scale(1,1)"><g class="rs"><path d="M 219.74 366 m -1, 0 a 1,1 0 1,0 2,0 a 1,1 0 1,0 -2,0 M 219.74 366 m -0.5, 0 a 0.5,0.5 0 1,0 1,0 a 0.5,0.5 0 1,0 -1,0  M219.74 366 L219.74 366 231.74 366 M225.74 372 L225.74 372 225.74 360 M231.74 366 Q 278.81 366, 325.87 359.5 T 420 353 M 432 353 m -1, 0 a 1,1 0 1,0 2,0 a 1,1 0 1,0 -2,0 M 432 353 m -0.5, 0 a 0.5,0.5 0 1,0 1,0 a 0.5,0.5 0 1,0 -1,0  M432 353 L432 353 420 353 M426 359 L426 359 426 347" id="h1749248143" class="r"></path><path d="M 91 391 m -1, 0 a 1,1 0 1,0 2,0 a 1,1 0 1,0 -2,0 M 91 391 m -0.5, 0 a 0.5,0.5 0 1,0 1,0 a 0.5,0.5 0 1,0 -1,0  M91 391 L91 391 79 391 M85 397 L85 397 85 385 M79 391 C 29 391, 26 86, 84 86 M 96 86 m -1, 0 a 1,1 0 1,0 2,0 a 1,1 0 1,0 -2,0 M 96 86 m -0.5, 0 a 0.5,0.5 0 1,0 1,0 a 0.5,0.5 0 1,0 -1,0  M96 86 L96 86 84 86 M90 92 L90 92 90 80" id="h1051940598" class="r"></path><path d="M 425 88 m -1, 0 a 1,1 0 1,0 2,0 a 1,1 0 1,0 -2,0 M 425 88 m -0.5, 0 a 0.5,0.5 0 1,0 1,0 a 0.5,0.5 0 1,0 -1,0  M425 88 L425 88 413 88 M419 94 L419 94 419 82 M413 88 Q 363.26 88, 313.52 87 T 214.05 86 M 202.05 86 m -1, 0 a 1,1 0 1,0 2,0 a 1,1 0 1,0 -2,0 M 202.05 86 m -0.5, 0 a 0.5,0.5 0 1,0 1,0 a 0.5,0.5 0 1,0 -1,0  M202.05 86 L202.05 86 214.05 86 M208.05 92 L208.05 92 208.05 80" id="h1397587031" class="r"></path><path d="M 541.29 113 m -1, 0 a 1,1 0 1,0 2,0 a 1,1 0 1,0 -2,0 M 541.29 113 m -0.5, 0 a 0.5,0.5 0 1,0 1,0 a 0.5,0.5 0 1,0 -1,0  M541.29 113 L541.29 113 553.29 113 M547.29 119 L547.29 119 547.29 107 M553.29 113 C 603.29 113, 606.242 353, 548.37 353 M 536.37 353 m -1, 0 a 1,1 0 1,0 2,0 a 1,1 0 1,0 -2,0 M 536.37 353 m -0.5, 0 a 0.5,0.5 0 1,0 1,0 a 0.5,0.5 0 1,0 -1,0  M536.37 353 L536.37 353 548.37 353 M542.37 359 L542.37 359 542.37 347" id="h2286254435" class="r"></path><path d="M 749 526 m -1, 0 a 1,1 0 1,0 2,0 a 1,1 0 1,0 -2,0 M 749 526 m -0.5, 0 a 0.5,0.5 0 1,0 1,0 a 0.5,0.5 0 1,0 -1,0  M749 526 L749 526 737 526 M743 532 L743 532 743 520 M737 526 Q 689.84 526, 642.68 439.5 T 548.37 353 M 536.37 353 m -1, 0 a 1,1 0 1,0 2,0 a 1,1 0 1,0 -2,0 M 536.37 353 m -0.5, 0 a 0.5,0.5 0 1,0 1,0 a 0.5,0.5 0 1,0 -1,0  M536.37 353 L536.37 353 548.37 353 M542.37 359 L542.37 359 542.37 347" id="h3177548053" class="r"></path><path d="M 807 247 m -1, 0 a 1,1 0 1,0 2,0 a 1,1 0 1,0 -2,0 M 807 247 m -0.5, 0 a 0.5,0.5 0 1,0 1,0 a 0.5,0.5 0 1,0 -1,0  M807 247 L807 247 795 247 M801 253 L801 253 801 241 M795 247 Q 733.35 247, 671.69 300 T 548.37 353 M 536.37 353 m -1, 0 a 1,1 0 1,0 2,0 a 1,1 0 1,0 -2,0 M 536.37 353 m -0.5, 0 a 0.5,0.5 0 1,0 1,0 a 0.5,0.5 0 1,0 -1,0  M536.37 353 L536.37 353 548.37 353 M542.37 359 L542.37 359 542.37 347" id="h3000826536" class="r"></path></g><g class="hrs"></g><g class="ts"><svg width="106.05" height="100" x="96" y="29" id="h475896179" class="t"><rect height="40" width="106.05" class="th"></rect><text x="13" y="25" class="tht">departments</text><rect height="60" width="106.05" class="t-bg"></rect><text x="13" y="61" class="tf pk">dept_no</text><path d="M7,14A2,2 0 0,1 5,12A2,2 0 0,1 7,10A2,2 0 0,1 9,12A2,2 0 0,1 7,14M12.65,10C11.83,7.67 9.61,6 7, 6A6, 6 0 0, 0 1, 12A6, 6 0 0, 0 7, 18C9.61, 18 11.83, 16.33 12.65, 14H17V18H21V14H23V10H12.65Z" class="i pk" transform="translate(78.05, 48) scale(0.65)"></path><text x="13" y="86" class="tf">dept_name</text></svg><svg width="116.29" height="150" x="425" y="31" id="h1676682957" class="t"><rect height="40" width="116.29" class="th"></rect><text x="13" y="25" class="tht">dept_manager</text><rect height="110" width="116.29" class="t-bg"></rect><text x="13" y="61" class="tf fk">dept_no</text><text x="13" y="86" class="tf fk">emp_no</text><text x="13" y="111" class="tf">from_date</text><text x="13" y="136" class="tf">to_date</text></svg><svg width="128.74" height="150" x="91" y="309" id="h1288854339" class="t"><rect height="40" width="128.74" class="th"></rect><text x="13" y="25" class="tht">dept_employees</text><rect height="110" width="128.74" class="t-bg"></rect><text x="13" y="61" class="tf fk">emp_no</text><text x="13" y="86" class="tf fk">dept_no</text><text x="13" y="111" class="tf">from_date</text><text x="13" y="136" class="tf">to_date</text></svg><svg width="104.37" height="200" x="432" y="296" id="h1639608377" class="t"><rect height="40" width="104.37" class="th"></rect><text x="13" y="25" class="tht">employees</text><rect height="160" width="104.37" class="t-bg"></rect><text x="13" y="61" class="tf pk">emp_no</text><path d="M7,14A2,2 0 0,1 5,12A2,2 0 0,1 7,10A2,2 0 0,1 9,12A2,2 0 0,1 7,14M12.65,10C11.83,7.67 9.61,6 7, 6A6, 6 0 0, 0 1, 12A6, 6 0 0, 0 7, 18C9.61, 18 11.83, 16.33 12.65, 14H17V18H21V14H23V10H12.65Z" class="i pk" transform="translate(76.37, 48) scale(0.65)"></path><text x="13" y="86" class="tf">birth_date</text><text x="13" y="111" class="tf">first_name</text><text x="13" y="136" class="tf">last_name</text><text x="13" y="161" class="tf">gender</text><text x="13" y="186" class="tf">hire_date</text></svg><svg width="100.03" height="150" x="807" y="190" id="h311790747" class="t"><rect height="40" width="100.03" class="th"></rect><text x="13" y="25" class="tht">titles</text><rect height="110" width="100.03" class="t-bg"></rect><text x="13" y="61" class="tf fk">emp_no</text><text x="13" y="86" class="tf">title</text><text x="13" y="111" class="tf">from_date</text><text x="13" y="136" class="tf">to_date</text></svg><svg width="100.03" height="150" x="749" y="469" id="h2472833127" class="t"><rect height="40" width="100.03" class="th"></rect><text x="13" y="25" class="tht">salaries</text><rect height="110" width="100.03" class="t-bg"></rect><text x="13" y="61" class="tf fk">emp_no</text><text x="13" y="86" class="tf">salary</text><text x="13" y="111" class="tf">from_date</text><text x="13" y="136" class="tf">to_date</text></svg></g></g><text class="qdbd-link" x="10" y="20">www.quickdatabasediagrams.com</text></svg>